<?xml version="1.0" encoding="iso-8859-1"?>
<!-- Generator: Adobe Illustrator 19.0.0, SVG Export Plug-In . SVG Version: 6.00 Build 0)  -->
<svg version="1.1" id="Capa_1" xmlns="http://www.w3.org/2000/svg" xmlns:xlink="http://www.w3.org/1999/xlink" x="0px" y="0px"
	 viewBox="0 0 512 512" style="enable-background:new 0 0 512 512;" xml:space="preserve">
<g>
	<g>
		<rect x="249.475" y="103.524" width="15.059" height="15.059"/>
	</g>
</g>
<g>
	<g>
		<path d="M105.412,263.529v15.059h12.298v11.294c0,14.531,11.822,26.353,26.353,26.353c7.369,0,14.037-3.044,18.824-7.935
			c4.787,4.891,11.455,7.935,18.824,7.935c7.369,0,14.037-3.044,18.823-7.935c4.787,4.891,11.455,7.935,18.824,7.935
			s14.037-3.044,18.824-7.935c4.787,4.891,11.455,7.935,18.824,7.935c7.369,0,14.037-3.044,18.823-7.935
			c4.787,4.891,11.455,7.935,18.824,7.935s14.037-3.044,18.824-7.935c4.787,4.891,11.455,7.935,18.823,7.935
			c7.369,0,14.037-3.044,18.824-7.935c4.787,4.891,11.455,7.935,18.824,7.935c14.531,0,26.353-11.822,26.353-26.353v-11.294h10.29
			v-15.059H105.412z M155.357,289.882c0,6.227-5.067,11.294-11.294,11.294c-6.227,0-11.294-5.067-11.294-11.294v-11.294h22.588
			V289.882z M193.004,289.882c0,6.227-5.067,11.294-11.294,11.294c-6.227,0-11.294-5.067-11.294-11.294v-11.294h22.588V289.882z
			 M230.651,289.882c0,6.227-5.067,11.294-11.294,11.294s-11.294-5.067-11.294-11.294v-11.294h22.588V289.882z M268.298,289.882
			c0,6.227-5.067,11.294-11.294,11.294c-6.227,0-11.294-5.067-11.294-11.294v-11.294h22.588V289.882z M305.945,289.882
			c0,6.227-5.067,11.294-11.294,11.294s-11.294-5.067-11.294-11.294v-11.294h22.588V289.882z M343.592,289.882
			c0,6.227-5.067,11.294-11.294,11.294c-6.227,0-11.294-5.067-11.294-11.294v-11.294h22.588V289.882z M381.239,289.882
			c0,6.227-5.067,11.294-11.294,11.294c-6.227,0-11.294-5.067-11.294-11.294v-11.294h22.588V289.882z"/>
	</g>
</g>
<g>
	<g>
		<path d="M366.18,227.765c-35.974,0-67.639-18.784-85.711-47.059h5.648v-15.059h-13.583c-5.151-12.158-8.001-25.517-8.001-39.529
			h-15.059c0,14.013-2.85,27.372-8.001,39.529h-15.591v15.059h7.656c-18.072,28.274-49.737,47.059-85.711,47.059H117.71V256h15.059
			v-13.176h15.059c49.835,0,92.474-31.398,109.177-75.451c16.702,44.053,59.342,75.451,109.176,75.451h15.059V256h15.059v-28.235
			H366.18z"/>
	</g>
</g>
<g>
	<g>
		<rect x="132.769" y="331.294" width="15.059" height="128"/>
	</g>
</g>
<g>
	<g>
		<polygon points="147.827,496.941 147.827,474.353 132.769,474.353 132.769,496.941 117.71,496.941 117.71,512 162.886,512 
			162.886,496.941 		"/>
	</g>
</g>
<g>
	<g>
		<rect x="366.18" y="331.294" width="15.059" height="128"/>
	</g>
</g>
<g>
	<g>
		<polygon points="381.239,496.941 381.239,474.353 366.18,474.353 366.18,496.941 351.122,496.941 351.122,512 396.298,512 
			396.298,496.941 		"/>
	</g>
</g>
<g>
	<g>
		<path d="M503.467,165.647h-23.623c-39.766,0-79.736-8.845-115.589-25.577c-36.05-16.825-68.357-41.833-93.431-72.323
			c-0.817-0.995-1.628-1.992-2.431-2.994l-4.862-6.903V30.118h-15.059v27.431c-5.206,6.397-10.666,12.661-16.28,18.636
			c-53.442,56.855-129.556,89.463-208.828,89.463H8.533H1.004v97.882h96.878v-15.059h-81.82v-67.765h7.301h187.46v-15.059h-92.935
			c47.537-15.504,90.866-42.542,125.275-79.149c4.214-4.484,8.353-9.122,12.365-13.855l0.686,0.973l0.281,0.373
			c0.89,1.111,1.789,2.219,2.697,3.322c26.493,32.216,60.621,58.636,98.695,76.404c9.718,4.536,19.725,8.511,29.937,11.932h-86.647
			v15.059h178.667h17.098v67.765h-84.706v15.059H512v-97.882H503.467z"/>
	</g>
</g>
<g>
	<g>
		<path d="M357.647,75.294c-2.076,0-3.765-1.689-3.765-3.765s1.689-3.765,3.765-3.765h11.294c12.456,0,22.588-10.133,22.588-22.588
			c0-12.456-10.133-22.588-22.588-22.588h-41.412c-2.076,0-3.765-1.689-3.765-3.765C323.765,8.444,315.321,0,304.941,0h-33.882
			v15.059h33.882c2.076,0,3.765,1.689,3.765,3.765c0,10.38,8.444,18.823,18.824,18.823h41.412c4.152,0,7.529,3.377,7.529,7.529
			s-3.377,7.529-7.529,7.529h-11.294c-10.38,0-18.824,8.444-18.824,18.824s8.444,18.824,18.824,18.824h79.059V75.294H357.647z"/>
	</g>
</g>
<g>
	<g>
		<rect y="278.588" width="15.059" height="30.118"/>
	</g>
</g>
<g>
	<g>
		<rect x="22.588" y="278.588" width="15.059" height="30.118"/>
	</g>
</g>
<g>
	<g>
		<rect x="45.176" y="278.588" width="15.059" height="30.118"/>
	</g>
</g>
<g>
	<g>
		<rect x="67.765" y="278.588" width="15.059" height="30.118"/>
	</g>
</g>
<g>
	<g>
		<rect x="90.353" y="278.588" width="15.059" height="30.118"/>
	</g>
</g>
<g>
	<g>
		<rect x="406.588" y="278.588" width="15.059" height="30.118"/>
	</g>
</g>
<g>
	<g>
		<rect x="429.177" y="278.588" width="15.059" height="30.118"/>
	</g>
</g>
<g>
	<g>
		<rect x="451.765" y="278.588" width="15.059" height="30.118"/>
	</g>
</g>
<g>
	<g>
		<rect x="474.353" y="278.588" width="15.059" height="30.118"/>
	</g>
</g>
<g>
	<g>
		<rect x="496.941" y="278.588" width="15.059" height="30.118"/>
	</g>
</g>
<g>
	<g>
		<rect x="22.588" y="323.765" width="15.059" height="150.588"/>
	</g>
</g>
<g>
	<g>
		<polygon points="37.647,496.941 37.647,481.882 22.588,481.882 22.588,496.941 15.059,496.941 15.059,512 45.176,512 
			45.176,496.941 		"/>
	</g>
</g>
<g>
	<g>
		<rect x="474.353" y="323.765" width="15.059" height="150.588"/>
	</g>
</g>
<g>
	<g>
		<polygon points="489.412,496.941 489.412,481.882 474.353,481.882 474.353,496.941 466.824,496.941 466.824,512 496.941,512 
			496.941,496.941 		"/>
	</g>
</g>
<g>
	<g>
		<rect x="248.471" width="15.059" height="15.059"/>
	</g>
</g>
<g>
</g>
<g>
</g>
<g>
</g>
<g>
</g>
<g>
</g>
<g>
</g>
<g>
</g>
<g>
</g>
<g>
</g>
<g>
</g>
<g>
</g>
<g>
</g>
<g>
</g>
<g>
</g>
<g>
</g>
</svg>
