<svg height="480pt" viewBox="0 -41 480 480" width="480pt" xmlns="http://www.w3.org/2000/svg"><path d="m440 197.65625c-.066406-.890625-.21875-1.777344-.449219-2.640625l-54.335937-155.261719 28.441406-28.441406-11.3125-11.3125-26.34375 26.34375-26.34375-26.34375-11.3125 11.3125 23.953125 23.945312-122.296875 57.550782-122.296875-57.550782 23.953125-23.953124-11.3125-11.304688-26.34375 26.34375-26.34375-26.34375-11.3125 11.3125 28.441406 28.441406-54.335937 155.261719c-.230469.863281-.382813 1.75-.449219 2.640625v184h-40v16h136v-16h-48v-96h112v96h-16v16h192v-16h-96v-96h112v104c0 4.417969 3.582031 8 8 8h80v-16h-40zm-192 24v-16h176v16zm-192 0v-16h176v16zm17.28125-72 5.597656-16h49.121094v-16h-43.527344l5.597656-16h21.929688v-16h-16.328125l11.265625-32.183594 115.765625 136.183594h-163.421875l8.398438-24h76.320312v-16zm316.648438-48 5.597656 16h-43.527344v16h49.128906l5.597656 16h-70.726562v16h76.320312l8.398438 24h-163.421875l115.765625-136.183594 11.265625 32.183594h-16.328125v16zm-141.929688 74.230469v-69.152344l97.976562-46.109375zm-16-69.152344v69.152344l-97.976562-115.261719zm-176 274.921875v-144h16v144zm32-112v-32h16v16h16v-16h16v16h16v-16h16v16h16v-16h16v32zm128-32h16v144h-16zm32 144v-144h16v144zm32-112v-32h16v16h16v-16h16v16h16v-16h16v16h16v-16h16v32zm128 112v-144h16v144zm0 0"/><path d="m152 381.65625h16v16h-16zm0 0"/></svg>