<?xml version="1.0" encoding="utf-8"?>
<!-- Generator: Adobe Illustrator 19.0.0, SVG Export Plug-In . SVG Version: 6.00 Build 0)  -->
<svg version="1.1" id="Layer_1" xmlns="http://www.w3.org/2000/svg" xmlns:xlink="http://www.w3.org/1999/xlink" x="0px" y="0px"
	 viewBox="-655 301 54 54" style="enable-background:new -655 301 54 54;" xml:space="preserve">
<style type="text/css">
	.st0{fill:#FFFFFF;}
</style>
<path class="st0" d="M-633.4,340.1l16.2-12.1l-16.2-12.1V340.1z M-628,301c-14.9,0-27,12.1-27,27s12.1,27,27,27s27-12.1,27-27
	C-601,313.1-613.1,301-628,301z M-628,349.6c-11.9,0-21.6-9.7-21.6-21.6s9.7-21.6,21.6-21.6c11.9,0,21.6,9.7,21.6,21.6c0,0,0,0,0,0
	C-606.4,339.9-616.1,349.6-628,349.6z"/>
</svg>
